<svg xmlns="http://www.w3.org/2000/svg" width="205.763" height="73.035" viewBox="0 0 205.763 73.035">
    <defs>
        <style>
            .cls-1{fill:#fff}.cls-2,.cls-5{fill:#d20013}.cls-3{fill:#f5c300}.cls-4{fill:#fef4e7}.cls-5{fill-rule:evenodd}.cls-6{fill:#161615}
        </style>
    </defs>
    <g id="Grupo_78" data-name="Grupo 78" transform="translate(-55.319 -213.151)">
        <path id="Trazado_1" d="M211.689 221.554c-17.538 0-32.92 6.256-41.741 15.664H74.94a18.315 18.315 0 1 0 0 36.63h95.014c8.815 9.412 24.2 15.668 41.736 15.668 27.387 0 49.6-15.223 49.6-33.989s-22.214-33.974-49.6-33.974" class="cls-1" data-name="Trazado 1" transform="translate(-.755 -4.87)"/>
        <g id="Grupo_1" data-name="Grupo 1" transform="translate(205.35 255.208)">
            <path id="Trazado_2" d="M413.8 331.748a1.392 1.392 0 0 1-.614-.137 1.688 1.688 0 0 1-.831-1.026c-.656-1.859.162-5.734 2.035-9.641s4.373-6.989 6.226-7.639a1.533 1.533 0 0 1 2.14 1.023c.658 1.856-.157 5.735-2.027 9.654-1.88 3.919-4.384 6.988-6.235 7.636a2.117 2.117 0 0 1-.694.13zm7.512-18.185a1.723 1.723 0 0 0-.568.108c-1.762.618-4.174 3.609-6 7.44s-2.644 7.578-2.02 9.346a1.318 1.318 0 0 0 .633.8 1.3 1.3 0 0 0 1.012-.008c1.76-.617 4.176-3.605 6.012-7.438 1.829-3.832 2.638-7.593 2.012-9.357a1.3 1.3 0 0 0-.627-.8 1.016 1.016 0 0 0-.45-.091z" class="cls-2" data-name="Trazado 2" transform="translate(-412.135 -313.174)"/>
        </g>
        <g id="Grupo_2" data-name="Grupo 2" transform="translate(201.909 253.564)">
            <path id="Trazado_3" d="M405 327.711c-1.774-.853-1.241-5.541 1.215-10.672 1.869-3.918 4.37-6.99 6.224-7.644a1.687 1.687 0 0 1 1.314 0l-.167.351a1.3 1.3 0 0 0-1.018.012c-1.763.622-4.176 3.614-6 7.445-2.284 4.772-2.924 9.422-1.4 10.157z" class="cls-2" data-name="Trazado 3" transform="translate(-403.952 -309.265)"/>
        </g>
        <g id="Grupo_3" data-name="Grupo 3" transform="translate(203.565 254.261)">
            <path id="Trazado_4" d="M408.936 329.366c-1.773-.853-1.243-5.54 1.208-10.67a23.4 23.4 0 0 1 3.948-5.98c1.436-1.49 2.71-2.079 3.586-1.663l-.167.351c-.708-.341-1.846.239-3.14 1.581a23 23 0 0 0-3.877 5.878c-2.279 4.77-2.916 9.421-1.389 10.156z" class="cls-2" data-name="Trazado 4" transform="translate(-407.889 -310.923)"/>
        </g>
        <g id="Grupo_4" data-name="Grupo 4" transform="translate(211.549 253.694)">
            <path id="Trazado_5" d="M430.3 311.571l-1.8-.953-1.63-.686.152-.358 1.645.694 1.811.96z" class="cls-2" data-name="Trazado 5" transform="translate(-426.879 -309.574)"/>
        </g>
        <g id="Grupo_5" data-name="Grupo 5" transform="translate(202.965 271.658)">
            <path id="Trazado_6" d="M409.9 354.281l-1.793-.94-1.641-.686.149-.358 1.656.694 1.808.948z" class="cls-2" data-name="Trazado 6" transform="translate(-406.464 -352.296)"/>
        </g>
        <g id="Grupo_6" data-name="Grupo 6" transform="translate(176.99 240.092)">
            <path id="Trazado_7" d="M345.583 299.633a1.422 1.422 0 0 1-.7-.864c-.7-1.96.484-6.811 2.866-11.795s5.416-8.948 7.373-9.637a1.43 1.43 0 0 1 1.121 0l-.169.348a1.083 1.083 0 0 0-.823.015c-1.868.658-4.809 4.539-7.151 9.438s-3.514 9.627-2.851 11.5a1.055 1.055 0 0 0 .5.643z" class="cls-2" data-name="Trazado 7" transform="translate(-344.686 -277.224)"/>
        </g>
        <g id="Grupo_7" data-name="Grupo 7" transform="translate(198.227 251.13)">
            <path id="Trazado_8" d="M396.342 323.8a1.838 1.838 0 0 1-.9-1.116c-.721-2.043.183-6.316 2.25-10.63s4.808-7.712 6.853-8.436a1.831 1.831 0 0 1 1.435 0l-.167.351a1.456 1.456 0 0 0-1.139.015c-1.955.691-4.619 4-6.632 8.237s-2.923 8.383-2.234 10.335a1.465 1.465 0 0 0 .7.894z" class="cls-2" data-name="Trazado 8" transform="translate(-395.195 -303.475)"/>
        </g>
        <g id="Grupo_8" data-name="Grupo 8" transform="translate(188.372 240.211)">
            <path id="Rectángulo_2" d="M0 0h.387v23.265H0z" class="cls-2" data-name="Rectángulo 2" transform="rotate(-61.588 .286 .17)"/>
        </g>
        <g id="Grupo_9" data-name="Grupo 9" transform="translate(177.895 262.146)">
            <path id="Rectángulo_3" d="M0 0h.388v23.287H0z" class="cls-2" data-name="Rectángulo 3" transform="rotate(-67.379 .269 .179)"/>
        </g>
        <g id="Grupo_10" data-name="Grupo 10" transform="translate(208.797 251.307)">
            <path id="Rectángulo_4" d="M0 0h.387v3.626H0z" class="cls-2" data-name="Rectángulo 4" transform="rotate(-48.09 .323 .144)"/>
        </g>
        <g id="Grupo_11" data-name="Grupo 11" transform="translate(199.435 271.091)">
            <path id="Rectángulo_5" d="M0 0h.388v3.618H0z" class="cls-2" data-name="Rectángulo 5" transform="rotate(-81.2 .223 .192)"/>
        </g>
        <g id="Grupo_12" data-name="Grupo 12" transform="translate(180.586 250.376)">
            <path id="Trazado_9" d="M371.875 311.082c-1.173 0-5.578-1.82-9.588-3.744-4.282-2.036-8.759-4.5-9.029-5.274a.294.294 0 0 1 .007-.234c.443-.933 8.372 2.8 9.954 3.558s9.469 4.584 9.027 5.515a.3.3 0 0 1-.178.154.6.6 0 0 1-.193.025zm-18.191-9.051c.478.571 3.629 2.513 8.771 4.957 5.227 2.509 8.651 3.717 9.377 3.719-.457-.562-3.546-2.468-8.778-4.968-5.214-2.492-8.633-3.699-9.37-3.709z" class="cls-2" data-name="Trazado 9" transform="translate(-353.238 -301.682)"/>
        </g>
        <g id="Grupo_13" data-name="Grupo 13" transform="translate(178.081 256.984)">
            <path id="Trazado_10" d="M366.373 325.494c-1.942 0-8.808-2.679-9.686-3.024-1.634-.643-9.766-3.9-9.395-4.859a.3.3 0 0 1 .169-.168c.78-.337 5.742 1.324 10.018 3.014 1 .394 9.769 3.877 9.392 4.862-.05.122-.225.175-.498.175zm-18.651-7.719c.5.53 3.718 2.211 9.107 4.334 5.267 2.074 8.729 3.041 9.561 3.041h.048c-.515-.537-3.727-2.217-9.1-4.332-5.258-2.078-8.716-3.043-9.558-3.043z" class="cls-2" data-name="Trazado 10" transform="translate(-347.281 -317.398)"/>
        </g>
        <g id="Grupo_14" data-name="Grupo 14" transform="translate(184.33 243.811)">
            <path id="Trazado_11" d="M380.314 296.459c-1.092 0-5.472-2.078-9.435-4.24-.945-.514-9.221-5.048-8.713-5.983.1-.185.269-.482 3.207.8 1.795.786 4.122 1.948 6.552 3.272 1.539.841 9.2 5.08 8.717 5.986a.3.3 0 0 1-.184.142.51.51 0 0 1-.144.023zm-17.741-10c.443.592 3.486 2.7 8.492 5.423s8.428 4.145 9.171 4.2c-.434-.587-3.412-2.65-8.5-5.424s-8.436-4.158-9.163-4.203z" class="cls-2" data-name="Trazado 11" transform="translate(-362.144 -286.069)"/>
        </g>
        <g id="Grupo_15" data-name="Grupo 15" transform="translate(179.151 253.764)">
            <path id="Trazado_12" d="M368.79 318.2c-1.9 0-8.787-2.853-9.663-3.218-1.619-.675-9.678-4.092-9.287-5.041a.3.3 0 0 1 .167-.16c.744-.313 5.572 1.373 9.957 3.2 1.621.677 9.686 4.1 9.3 5.047-.054.118-.219.172-.474.172zm-18.523-8.081c.495.539 3.671 2.278 9.009 4.5 5.2 2.175 8.738 3.228 9.533 3.228h.021c-.5-.543-3.683-2.283-9.015-4.51-5.2-2.171-8.729-3.223-9.523-3.223z" class="cls-2" data-name="Trazado 12" transform="translate(-349.826 -309.741)"/>
        </g>
        <g id="Grupo_16" data-name="Grupo 16" transform="translate(182.316 246.953)">
            <path id="Trazado_13" d="M375.55 303.876c-1.122 0-5.583-2.133-9.435-4.213-4.051-2.195-8.517-4.924-8.747-5.726a.3.3 0 0 1 .021-.235.294.294 0 0 1 .181-.14c.784-.259 5.519 1.995 9.575 4.183s8.518 4.929 8.756 5.736a.3.3 0 0 1-.019.234.3.3 0 0 1-.185.144.549.549 0 0 1-.147.017zm-17.759-9.954c.426.582 3.413 2.64 8.508 5.4s8.452 4.128 9.178 4.173c-.433-.587-3.421-2.648-8.515-5.411s-8.454-4.123-9.17-4.162z" class="cls-2" data-name="Trazado 13" transform="translate(-357.355 -293.541)"/>
        </g>
        <g id="Grupo_17" data-name="Grupo 17" transform="translate(177.687 260.076)">
            <path id="Trazado_14" d="M365.526 332.744c-1.34 0-5.814-1.485-9.733-2.992-2.568-.989-4.959-2.009-6.733-2.874-2.885-1.408-2.763-1.722-2.689-1.911a.3.3 0 0 1 .165-.167c.772-.349 5.741 1.282 10.039 2.937 4.425 1.7 9.078 3.817 9.406 4.563a.3.3 0 0 1 .012.233.3.3 0 0 1-.164.167.8.8 0 0 1-.303.044zm-18.726-7.613c.517.53 3.744 2.186 9.13 4.26 5.281 2.031 8.745 2.977 9.578 2.977h.052c-.511-.534-3.734-2.194-9.126-4.269-5.405-2.082-8.926-3.007-9.634-2.968z" class="cls-2" data-name="Trazado 14" transform="translate(-346.344 -324.753)"/>
        </g>
        <g id="Grupo_18" data-name="Grupo 18" transform="translate(186.671 241.404)">
            <path id="Trazado_15" d="M385.844 290.757c-1.1 0-5.47-2.094-9.414-4.273-.377-.205-9.221-5.047-8.7-6.014.5-.933 8.8 3.6 9.739 4.116 4.044 2.225 8.5 4.983 8.726 5.781a.294.294 0 0 1-.023.23.3.3 0 0 1-.187.142.484.484 0 0 1-.141.018zm-17.7-10.062c.447.6 3.482 2.723 8.477 5.45 5 2.76 8.417 4.183 9.153 4.232-.439-.59-3.417-2.661-8.486-5.449s-8.402-4.175-9.148-4.234z" class="cls-2" data-name="Trazado 15" transform="translate(-367.71 -280.344)"/>
        </g>
        <g id="Grupo_19" data-name="Grupo 19" transform="translate(177.633 240.403)">
            <path id="Trazado_16" d="M347.129 300.384c-1.992-.957-.47-7.194 2.152-12.668 2.981-6.252 6.705-10.489 8.488-9.647l-.167.351c-1.381-.664-4.891 3-7.971 9.463s-3.7 11.494-2.334 12.153z" class="cls-2" data-name="Trazado 16" transform="translate(-346.217 -277.963)"/>
        </g>
        <g id="Grupo_20" data-name="Grupo 20" transform="translate(216.054 265.352)">
            <path id="Trazado_17" d="M452.641 346.429a21.84 21.84 0 0 1-6.938-1.392c-3.922-1.39-7.1-3.471-7.91-5.176a1.609 1.609 0 0 1-.127-1.25c.628-1.776 5.149-1.745 10.291.067 3.926 1.4 7.1 3.486 7.9 5.187a1.471 1.471 0 0 1-.769 2.144 5.914 5.914 0 0 1-2.447.42zm-11.659-8.743c-1.593 0-2.7.348-2.95 1.056a1.234 1.234 0 0 0 .112.952c.755 1.594 3.917 3.641 7.689 4.978 3.759 1.342 7.5 1.745 9.094.986a1.09 1.09 0 0 0 .586-1.628c-.748-1.588-3.908-3.64-7.683-4.986a21.809 21.809 0 0 0-6.848-1.358z" class="cls-2" data-name="Trazado 17" transform="translate(-437.591 -337.299)"/>
        </g>
        <g id="Grupo_21" data-name="Grupo 21" transform="translate(217.353 261.907)">
            <path id="Trazado_18" d="M459 336.927l-.365-.129c.252-.708-.409-1.742-1.813-2.838a22.115 22.115 0 0 0-5.986-3.1c-4.764-1.685-9.247-1.832-9.79-.316l-.365-.132c.638-1.768 5.157-1.731 10.285.082a22.487 22.487 0 0 1 6.095 3.164c1.567 1.22 2.256 2.383 1.939 3.269z" class="cls-2" data-name="Trazado 18" transform="translate(-440.681 -329.106)"/>
        </g>
        <g id="Grupo_22" data-name="Grupo 22" transform="translate(216.855 263.547)">
            <path id="Trazado_19" d="M457.816 340.832l-.365-.129a1.26 1.26 0 0 0-.116-.97c-.772-1.621-3.859-3.617-7.681-4.972-5.258-1.864-9.309-1.67-9.79-.318l-.365-.129c.633-1.777 5.152-1.737 10.285.082 3.913 1.386 7.09 3.464 7.9 5.17a1.629 1.629 0 0 1 .132 1.266z" class="cls-2" data-name="Trazado 19" transform="translate(-439.498 -333.006)"/>
        </g>
        <g id="Grupo_23" data-name="Grupo 23" transform="translate(234.09 269.607)">
            <path id="Trazado_20" d="M480.848 350.987l-.361-.144.72-1.794.495-1.629.371.112-.5 1.645z" class="cls-2" data-name="Trazado 20" transform="translate(-480.487 -347.42)"/>
        </g>
        <g id="Grupo_24" data-name="Grupo 24" transform="translate(216.135 263.218)">
            <path id="Trazado_21" d="M438.146 335.807l-.361-.142.716-1.811.5-1.63.371.114-.5 1.644z" class="cls-2" data-name="Trazado 21" transform="translate(-437.785 -332.224)"/>
        </g>
        <g id="Grupo_25" data-name="Grupo 25" transform="translate(223.9 237.258)">
            <path id="Trazado_22" d="M478.561 279.552l-.365-.132a1 1 0 0 0-.093-.771c-.808-1.712-4.794-4.126-9.692-5.869s-9.5-2.385-11.224-1.568a1.021 1.021 0 0 0-.569.548l-.365-.13a1.388 1.388 0 0 1 .768-.768c1.8-.859 6.54-.223 11.52 1.552s9.065 4.271 9.913 6.069a1.375 1.375 0 0 1 .107 1.069z" class="cls-2" data-name="Trazado 22" transform="translate(-456.252 -270.483)"/>
        </g>
        <g id="Grupo_26" data-name="Grupo 26" transform="translate(217.523 258.307)">
            <path id="Trazado_23" d="M461.273 329.162l-.365-.129c.6-1.691-3.35-4.7-8.625-6.578-4.164-1.485-8.3-1.932-10.062-1.1a1.384 1.384 0 0 0-.769.75l-.365-.129a1.75 1.75 0 0 1 .966-.97c1.874-.9 6.037-.461 10.36 1.081 5.66 2.013 9.553 5.121 8.86 7.075z" class="cls-2" data-name="Trazado 23" transform="translate(-441.086 -320.546)"/>
        </g>
        <g id="Grupo_27" data-name="Grupo 27" transform="translate(237.348 246.187)">
            <path id="Trazado_24" d="M488.594 312.465l-.358-.147 8.5-20.6.358.147z" class="cls-2" data-name="Trazado 24" transform="translate(-488.236 -291.72)"/>
        </g>
        <g id="Grupo_28" data-name="Grupo 28" transform="translate(217.521 238.414)">
            <path id="Trazado_25" d="M441.451 294.68l-.371-.112 6.377-21.335.37.112z" class="cls-2" data-name="Trazado 25" transform="translate(-441.08 -273.233)"/>
        </g>
        <g id="Grupo_29" data-name="Grupo 29" transform="translate(235.334 266.745)">
            <path id="Trazado_26" d="M483.758 343.645l-.313-.229 2.037-2.8.313.229z" class="cls-2" data-name="Trazado 26" transform="translate(-483.445 -340.612)"/>
        </g>
        <g id="Grupo_30" data-name="Grupo 30" transform="translate(217.342 259.795)">
            <path id="Trazado_27" d="M441.042 327.573l-.388-.02.17-3.471.388.02z" class="cls-2" data-name="Trazado 27" transform="translate(-440.654 -324.083)"/>
        </g>
        <g id="Grupo_31" data-name="Grupo 31" transform="translate(228.647 239.776)">
            <path id="Trazado_28" d="M467.828 295.49a.3.3 0 0 1-.095-.016c-.936-.336 1.821-8.25 2.383-9.833s3.421-9.484 4.368-9.16c.964.348-2.046 8.881-2.391 9.853-1.516 4.285-3.421 8.795-4.129 9.123a.324.324 0 0 1-.136.033zm6.5-18.563c-.5.542-2 3.668-3.846 8.844s-2.641 8.529-2.588 9.262c.5-.53 2-3.652 3.833-8.828s2.651-8.535 2.6-9.278z" class="cls-2" data-name="Trazado 28" transform="translate(-467.541 -276.472)"/>
        </g>
        <g id="Grupo_32" data-name="Grupo 32" transform="translate(223.354 238.045)">
            <path id="Trazado_29" d="M455.269 291.8a.262.262 0 0 1-.076-.01c-.917-.269 1.058-7.722 1.686-10 .446-1.6 2.695-9.436 3.665-9.436a.137.137 0 0 1 .045.006c.983.283-1.409 9-1.685 10-1.178 4.248-2.769 9-3.479 9.4a.311.311 0 0 1-.156.04zm5.193-18.982c-.461.578-1.73 3.8-3.211 9.076-1.523 5.532-2.029 8.749-1.93 9.444.465-.566 1.74-3.788 3.208-9.083s2.036-8.7 1.933-9.437z" class="cls-2" data-name="Trazado 29" transform="translate(-454.953 -272.355)"/>
        </g>
        <g id="Grupo_33" data-name="Grupo 33" transform="translate(234.259 242.684)">
            <path id="Trazado_30" d="M481.19 302.03a.278.278 0 0 1-.107-.021.29.29 0 0 1-.158-.164c-.3-.715 1.316-5.337 3.069-9.533.387-.931 3.732-8.923 4.764-8.923a.182.182 0 0 1 .067.013.29.29 0 0 1 .16.167c.3.72-1.313 5.346-3.064 9.544-1.7 4.074-3.867 8.594-4.611 8.892a.314.314 0 0 1-.12.025zm7.458-18.193c-.534.513-2.194 3.557-4.3 8.624s-3.1 8.372-3.089 9.112c.53-.513 2.189-3.55 4.3-8.61s3.103-8.388 3.088-9.125z" class="cls-2" data-name="Trazado 30" transform="translate(-480.889 -283.389)"/>
        </g>
        <g id="Grupo_34" data-name="Grupo 34" transform="translate(226.15 238.746)">
            <path id="Trazado_31" d="M461.9 293.342a.179.179 0 0 1-.052-.006.293.293 0 0 1-.175-.149c-.367-.677.761-5.444 2.065-9.8.474-1.583 2.853-9.36 3.839-9.36a.2.2 0 0 1 .052.007.291.291 0 0 1 .175.149c.383.7-.8 5.571-2.056 9.8-.472 1.579-2.848 9.359-3.848 9.359zm5.595-18.863c-.474.557-1.811 3.753-3.386 9.015s-2.211 8.658-2.125 9.39c.48-.56 1.822-3.756 3.395-9.018s2.204-8.666 2.121-9.387z" class="cls-2" data-name="Trazado 31" transform="translate(-461.603 -274.023)"/>
        </g>
        <g id="Grupo_35" data-name="Grupo 35" transform="translate(231.109 241.073)">
            <path id="Trazado_32" d="M473.672 298.227a.18.18 0 0 1-.069-.013c-.2-.081-.492-.2.436-3.142.564-1.791 1.433-4.126 2.446-6.577 1.681-4.071 3.833-8.6 4.584-8.907a.274.274 0 0 1 .231-.006c.921.4-2.241 8.17-2.884 9.726-.628 1.514-3.737 8.919-4.744 8.919zm7.447-18.212c-.53.51-2.182 3.554-4.277 8.628s-3.077 8.4-3.061 9.137c.529-.508 2.18-3.549 4.275-8.623s3.082-8.408 3.064-9.142z" class="cls-2" data-name="Trazado 32" transform="translate(-473.397 -279.558)"/>
        </g>
        <g id="Grupo_36" data-name="Grupo 36" transform="translate(220.511 237.987)">
            <path id="Trazado_33" d="M448.479 291.7a.156.156 0 0 1-.042-.005h-.006c-.978-.276 1.343-9.014 1.612-10.011 1.161-4.263 2.726-9.029 3.418-9.423a.291.291 0 0 1 .227-.034c.962.27-1.177 8.385-1.616 10.009-.432 1.598-2.608 9.464-3.593 9.464zm5.086-19.019c-.457.578-1.706 3.807-3.15 9.1-1.424 5.289-1.966 8.711-1.859 9.451.463-.584 1.712-3.814 3.142-9.1 1.433-5.302 1.978-8.724 1.867-9.45z" class="cls-2" data-name="Trazado 33" transform="translate(-448.191 -272.217)"/>
        </g>
        <g id="Grupo_37" data-name="Grupo 37" transform="translate(236.758 244.668)">
            <path id="Trazado_34" d="M487.133 306.723a.277.277 0 0 1-.106-.021.287.287 0 0 1-.159-.163c-.3-.707 1.332-5.331 3.1-9.533 1.713-4.065 3.9-8.576 4.64-8.874a.292.292 0 0 1 .235 0 .288.288 0 0 1 .154.164c.292.713-1.342 5.33-3.107 9.522-1.717 4.075-3.9 8.593-4.634 8.884a.333.333 0 0 1-.123.021zm7.521-18.163c-.508.481-2.1 3.313-4.329 8.6-2.126 5.056-3.127 8.374-3.117 9.111.526-.508 2.19-3.54 4.323-8.6s3.13-8.371 3.122-9.111z" class="cls-2" data-name="Trazado 34" transform="translate(-486.832 -288.107)"/>
        </g>
        <g id="Grupo_38" data-name="Grupo 38" transform="translate(223.675 237.902)">
            <path id="Trazado_35" d="M478.018 281.088l-.365-.129c.248-.7-.622-1.808-2.386-3.039a32.237 32.237 0 0 0-7.4-3.61c-4.9-1.74-9.515-2.385-11.227-1.565a1 1 0 0 0-.56.539l-.366-.129a1.37 1.37 0 0 1 .759-.76c1.8-.859 6.536-.222 11.523 1.549a32.621 32.621 0 0 1 7.49 3.658c1.38.96 2.936 2.345 2.532 3.486z" class="cls-2" data-name="Trazado 35" transform="translate(-455.716 -272.015)"/>
        </g>
        <path id="Trazado_36" d="M211.689 221.554c-17.538 0-32.92 6.256-41.741 15.664H74.94a18.315 18.315 0 1 0 0 36.63h95.014c8.815 9.412 24.2 15.668 41.736 15.668 27.387 0 49.6-15.223 49.6-33.989s-22.214-33.974-49.6-33.974m0 61.318c-15.141 0-28.94-5.073-36.9-13.567l-1.957-2.1H74.94a11.676 11.676 0 1 1 0-23.353h97.889l1.962-2.1c7.84-8.362 21.984-13.571 36.9-13.571 23.288 0 42.965 12.528 42.965 27.345s-19.676 27.344-42.965 27.344" class="cls-3" data-name="Trazado 36" transform="translate(-.755 -4.87)"/>
        <path id="Trazado_37" d="M210.935 289.308c-17 0-32.662-5.853-41.972-15.668H74.186a18.862 18.862 0 1 1 0-37.724h94.771c9.317-9.813 24.988-15.665 41.978-15.665 27.651 0 50.147 15.486 50.147 34.521s-22.495 34.536-50.147 34.536zm-136.75-52.3a17.768 17.768 0 1 0 0 35.536h95.251l.163.173c9.085 9.7 24.538 15.5 41.335 15.5 27.047 0 49.052-15 49.052-33.441s-22-33.427-49.052-33.427c-16.794 0-32.249 5.792-41.343 15.491l-.162.173z" class="cls-4" data-name="Trazado 37" transform="translate(0 -4.115)"/>
        <g id="Grupo_39" data-name="Grupo 39" transform="translate(207.152 266.084)">
            <path id="Trazado_38" d="M417.391 340.27c-.285.583-.669.991-.871.9-.175-.095-.114-.651.164-1.235s.662-.978.851-.884.131.645-.144 1.216" class="cls-5" data-name="Trazado 38" transform="translate(-416.422 -339.04)"/>
        </g>
        <g id="Grupo_40" data-name="Grupo 40" transform="translate(210.294 259.666)">
            <path id="Trazado_39" d="M424.862 325.021c-.285.578-.666.985-.856.886s-.133-.645.148-1.22.661-.985.854-.9c.19.108.126.659-.147 1.231" class="cls-5" data-name="Trazado 39" transform="translate(-423.892 -323.778)"/>
        </g>
        <g id="Grupo_41" data-name="Grupo 41" transform="translate(207.773 268.378)">
            <path id="Trazado_40" d="M418.862 345.73c-.278.577-.661.98-.848.883-.2-.092-.132-.644.148-1.216.273-.592.659-.988.854-.883.2.082.128.627-.154 1.216" class="cls-5" data-name="Trazado 40" transform="translate(-417.898 -344.497)"/>
        </g>
        <g id="Grupo_42" data-name="Grupo 42" transform="translate(212.597 258.366)">
            <path id="Trazado_41" d="M430.345 321.915c-.288.593-.664.991-.865.891-.189-.082-.125-.639.156-1.222s.661-.978.865-.884c.187.1.115.644-.156 1.216" class="cls-5" data-name="Trazado 41" transform="translate(-429.371 -320.686)"/>
        </g>
        <g id="Grupo_43" data-name="Grupo 43" transform="translate(209.95 267.238)">
            <path id="Trazado_42" d="M424.037 343.015c-.28.584-.661.983-.846.894-.2-.1-.136-.647.146-1.226s.658-.98.859-.884.127.629-.159 1.216" class="cls-5" data-name="Trazado 42" transform="translate(-423.075 -341.785)"/>
        </g>
        <g id="Grupo_44" data-name="Grupo 44" transform="translate(212.929 261.073)">
            <path id="Trazado_43" d="M431.13 328.351c-.289.577-.671.975-.86.893s-.128-.633.149-1.231c.278-.573.669-.98.863-.872.19.091.124.632-.152 1.21" class="cls-5" data-name="Trazado 43" transform="translate(-430.16 -327.124)"/>
        </g>
        <g id="Grupo_45" data-name="Grupo 45" transform="translate(209.905 264.084)">
            <path id="Trazado_44" d="M423.932 335.515c-.278.58-.66.984-.857.883-.188-.086-.129-.639.164-1.221.27-.578.653-.978.842-.879s.133.637-.149 1.217" class="cls-5" data-name="Trazado 44" transform="translate(-422.968 -334.283)"/>
        </g>
        <g id="Grupo_46" data-name="Grupo 46" transform="translate(221.4 266.803)">
            <path id="Trazado_45" d="M451.242 341.6c-.582-.194-1-.526-.927-.719s.6-.182 1.177.019 1 .535.926.736-.589.177-1.176-.036" class="cls-5" data-name="Trazado 45" transform="translate(-450.306 -340.75)"/>
        </g>
        <g id="Grupo_47" data-name="Grupo 47" transform="translate(227.822 269.153)">
            <path id="Trazado_46" d="M466.517 347.2c-.588-.211-1-.534-.931-.723s.6-.185 1.176.026.994.529.935.724-.6.179-1.18-.026" class="cls-5" data-name="Trazado 46" transform="translate(-465.579 -346.339)"/>
        </g>
        <g id="Grupo_48" data-name="Grupo 48" transform="translate(219.285 267.619)">
            <path id="Trazado_47" d="M446.208 343.555c-.576-.209-1-.534-.924-.724s.59-.189 1.175.026 1 .532.93.721-.6.179-1.181-.024" class="cls-5" data-name="Trazado 47" transform="translate(-445.276 -342.69)"/>
        </g>
        <g id="Grupo_49" data-name="Grupo 49" transform="translate(229.291 271.217)">
            <path id="Trazado_48" d="M470.005 352.113c-.572-.205-1-.53-.925-.73s.595-.182 1.186.036 1 .529.925.716-.6.179-1.187-.022" class="cls-5" data-name="Trazado 48" transform="translate(-469.072 -351.249)"/>
        </g>
        <g id="Grupo_50" data-name="Grupo 50" transform="translate(220.584 269.581)">
            <path id="Trazado_49" d="M449.3 348.217c-.581-.209-.994-.522-.925-.717s.592-.187 1.182.013c.573.21.991.539.926.727s-.6.184-1.184-.024" class="cls-5" data-name="Trazado 49" transform="translate(-448.366 -347.358)"/>
        </g>
        <g id="Grupo_51" data-name="Grupo 51" transform="translate(226.756 271.797)">
            <path id="Trazado_50" d="M463.98 353.5c-.584-.206-1-.518-.929-.722s.6-.189 1.17.017 1.011.542.936.72c-.075.194-.6.194-1.177-.015" class="cls-5" data-name="Trazado 50" transform="translate(-463.044 -352.628)"/>
        </g>
        <g id="Grupo_52" data-name="Grupo 52" transform="translate(223.58 269.224)">
            <path id="Trazado_51" d="M456.428 347.365c-.573-.206-1-.527-.93-.719s.6-.179 1.182.02c.579.214.991.536.926.725s-.6.178-1.179-.026" class="cls-5" data-name="Trazado 51" transform="translate(-455.49 -346.508)"/>
        </g>
        <g id="Grupo_53" data-name="Grupo 53" transform="translate(212.044 273.749)">
            <path id="Trazado_52" d="M429.268 358.409a.689.689 0 0 1-.98.072.694.694 0 0 1 .91-1.047.684.684 0 0 1 .07.975" class="cls-5" data-name="Trazado 52" transform="translate(-428.055 -357.271)"/>
        </g>
        <g id="Grupo_54" data-name="Grupo 54" transform="translate(212.407 270.372)">
            <path id="Trazado_53" d="M430.141 350.39a.7.7 0 1 1-1.056-.915.7.7 0 0 1 1.056.915" class="cls-5" data-name="Trazado 53" transform="translate(-428.918 -349.238)"/>
        </g>
        <g id="Grupo_55" data-name="Grupo 55" transform="translate(216.92 271.858)">
            <path id="Trazado_54" d="M440.866 353.918a.689.689 0 1 1-1.043-.9.677.677 0 0 1 .976-.07.687.687 0 0 1 .067.97" class="cls-5" data-name="Trazado 54" transform="translate(-439.652 -352.772)"/>
        </g>
        <g id="Grupo_56" data-name="Grupo 56" transform="translate(214.976 270.455)">
            <path id="Trazado_55" d="M436.247 350.584a.693.693 0 0 1-1.05-.9.693.693 0 1 1 1.05.9" class="cls-5" data-name="Trazado 55" transform="translate(-435.028 -349.436)"/>
        </g>
        <g id="Grupo_57" data-name="Grupo 57" transform="translate(210.134 277.681)">
            <path id="Trazado_56" d="M424.727 367.774a.691.691 0 1 1-1.039-.911.689.689 0 0 1 .976-.072.706.706 0 0 1 .062.983" class="cls-5" data-name="Trazado 56" transform="translate(-423.512 -366.623)"/>
        </g>
        <g id="Grupo_58" data-name="Grupo 58" transform="translate(214.312 272.756)">
            <path id="Trazado_57" d="M434.664 356.048a.69.69 0 0 1-1.052-.892.7.7 0 0 1 .98-.083.686.686 0 0 1 .072.975" class="cls-5" data-name="Trazado 57" transform="translate(-433.448 -354.909)"/>
        </g>
        <g id="Grupo_59" data-name="Grupo 59" transform="translate(208.934 274.993)">
            <path id="Trazado_58" d="M421.871 361.368a.674.674 0 0 1-.978.066.687.687 0 0 1-.066-.969.7.7 0 0 1 .976-.071.679.679 0 0 1 .069.973" class="cls-5" data-name="Trazado 58" transform="translate(-420.658 -360.229)"/>
        </g>
        <g id="Grupo_60" data-name="Grupo 60" transform="translate(216.298 274.175)">
            <path id="Trazado_59" d="M439.393 359.426a.691.691 0 0 1-.981.071.682.682 0 0 1-.071-.967.691.691 0 1 1 1.052.9" class="cls-5" data-name="Trazado 59" transform="translate(-438.172 -358.283)"/>
        </g>
        <g id="Grupo_61" data-name="Grupo 61" transform="translate(214.136 274.842)">
            <path id="Trazado_60" d="M434.251 361.013a.7.7 0 0 1-.983.071.693.693 0 1 1 .983-.071" class="cls-5" data-name="Trazado 60" transform="translate(-433.031 -359.869)"/>
        </g>
        <g id="Grupo_62" data-name="Grupo 62" transform="translate(213.252 277.553)">
            <path id="Trazado_61" d="M432.147 367.467a.7.7 0 0 1-.975.065.677.677 0 0 1-.074-.966.689.689 0 0 1 .978-.084.7.7 0 0 1 .071.986" class="cls-5" data-name="Trazado 61" transform="translate(-430.929 -366.316)"/>
        </g>
        <g id="Grupo_63" data-name="Grupo 63" transform="translate(211.657 275.917)">
            <path id="Trazado_62" d="M428.354 363.563a.689.689 0 1 1-.074-.97.693.693 0 0 1 .074.97" class="cls-5" data-name="Trazado 62" transform="translate(-427.134 -362.427)"/>
        </g>
        <g id="Grupo_64" data-name="Grupo 64" transform="translate(222.054 278.353)">
            <path id="Trazado_63" d="M452.951 368.293a.764.764 0 1 1-1.018.365.767.767 0 0 1 1.018-.365" class="cls-5" data-name="Trazado 63" transform="translate(-451.861 -368.22)"/>
        </g>
        <g id="Grupo_65" data-name="Grupo 65" transform="translate(218.362 278.991)">
            <path id="Trazado_64" d="M444.168 369.805a.762.762 0 1 1-1.015.368.763.763 0 0 1 1.015-.368" class="cls-5" data-name="Trazado 64" transform="translate(-443.081 -369.736)"/>
        </g>
        <g id="Grupo_66" data-name="Grupo 66" transform="translate(218.571 273.75)">
            <path id="Trazado_65" d="M444.66 357.343a.77.77 0 0 1-.649 1.4.789.789 0 0 1-.366-1.022.762.762 0 0 1 1.015-.376" class="cls-5" data-name="Trazado 65" transform="translate(-443.577 -357.272)"/>
        </g>
        <g id="Grupo_67" data-name="Grupo 67" transform="translate(217.671 276.234)">
            <path id="Trazado_66" d="M442.524 363.253a.76.76 0 0 1 .374 1.009.764.764 0 1 1-1.391-.633.76.76 0 0 1 1.017-.375" class="cls-5" data-name="Trazado 66" transform="translate(-441.438 -363.181)"/>
        </g>
        <g id="Grupo_68" data-name="Grupo 68" transform="translate(226.807 279.178)">
            <path id="Trazado_67" d="M464.252 370.252a.763.763 0 1 1-.634 1.389.763.763 0 1 1 .634-1.389" class="cls-5" data-name="Trazado 67" transform="translate(-463.166 -370.183)"/>
        </g>
        <g id="Grupo_69" data-name="Grupo 69" transform="translate(220.318 276.245)">
            <path id="Trazado_68" d="M448.821 363.285a.755.755 0 0 1 .368 1 .763.763 0 1 1-1.384-.644.752.752 0 0 1 1.016-.358" class="cls-5" data-name="Trazado 68" transform="translate(-447.732 -363.207)"/>
        </g>
        <g id="Grupo_70" data-name="Grupo 70" transform="translate(224.318 281.265)">
            <path id="Trazado_69" d="M458.337 375.214a.783.783 0 0 1 .367 1.023.754.754 0 0 1-1.01.363.745.745 0 0 1-.372-1.01.766.766 0 0 1 1.015-.377" class="cls-5" data-name="Trazado 69" transform="translate(-457.245 -375.145)"/>
        </g>
        <g id="Grupo_71" data-name="Grupo 71" transform="translate(221.214 273.713)">
            <path id="Trazado_70" d="M450.948 357.258a.757.757 0 1 1-1.013.362.754.754 0 0 1 1.013-.362" class="cls-5" data-name="Trazado 70" transform="translate(-449.864 -357.185)"/>
        </g>
        <g id="Grupo_72" data-name="Grupo 72" transform="translate(222.579 275.786)">
            <path id="Trazado_71" d="M454.2 362.184a.785.785 0 0 1 .367 1.028.776.776 0 0 1-1.015.37.771.771 0 0 1 .648-1.4" class="cls-5" data-name="Trazado 71" transform="translate(-453.11 -362.115)"/>
        </g>
        <g id="Grupo_73" data-name="Grupo 73" transform="translate(225.722 275.907)">
            <path id="Trazado_72" d="M461.673 362.469a.75.75 0 0 1 .365 1.009.761.761 0 1 1-1.384-.634.783.783 0 0 1 1.019-.375" class="cls-5" data-name="Trazado 72" transform="translate(-460.586 -362.402)"/>
        </g>
        <g id="Grupo_74" data-name="Grupo 74" transform="translate(224.474 278.103)">
            <path id="Trazado_73" d="M458.7 367.694a.763.763 0 0 1 .375 1.01.787.787 0 0 1-1.02.381.777.777 0 0 1-.375-1.011.762.762 0 0 1 1.02-.379" class="cls-5" data-name="Trazado 73" transform="translate(-457.617 -367.624)"/>
        </g>
        <g id="Grupo_75" data-name="Grupo 75" transform="translate(70.965 272.119)">
            <path id="Trazado_74" d="M95.652 364.087l-1.363 4.138H92.53L97 355.08h2.043l4.491 13.145h-1.819l-1.4-4.138zm4.314-1.326l-1.288-3.781c-.291-.859-.486-1.644-.682-2.4h-.041c-.2.78-.409 1.576-.659 2.376L96 362.761z" class="cls-6" data-name="Trazado 74" transform="translate(-92.53 -354.371)"/>
            <path id="Trazado_75" d="M123.158 353.394h1.718v13.854h-1.718z" class="cls-6" data-name="Trazado 75" transform="translate(-110.28 -353.394)"/>
            <path id="Trazado_76" d="M135.721 356.09a1.065 1.065 0 0 1-2.13 0 1.047 1.047 0 0 1 1.072-1.072 1.025 1.025 0 0 1 1.058 1.072zm-1.916 12.1v-9.442h1.716v9.442z" class="cls-6" data-name="Trazado 76" transform="translate(-116.326 -354.335)"/>
            <path id="Trazado_77" d="M144.847 366.145c0-.978-.019-1.773-.08-2.554h1.507l.076 1.524h.055a3.258 3.258 0 0 1 2.969-1.74 2.8 2.8 0 0 1 2.678 1.9h.034a3.757 3.757 0 0 1 1.051-1.231 3.243 3.243 0 0 1 2.09-.664c1.248 0 3.1.818 3.1 4.1v5.559h-1.68v-5.345c0-1.817-.66-2.911-2.048-2.911a2.228 2.228 0 0 0-2.027 1.567 2.749 2.749 0 0 0-.135.851v5.838h-1.684v-5.664c0-1.5-.659-2.591-1.967-2.591a2.346 2.346 0 0 0-2.124 1.716 2.37 2.37 0 0 0-.137.844v5.7h-1.679z" class="cls-6" data-name="Trazado 77" transform="translate(-122.803 -359.179)"/>
            <path id="Trazado_78" d="M183.666 368.624a3.021 3.021 0 0 0 3.234 3.276 6.173 6.173 0 0 0 2.615-.49l.295 1.23a7.669 7.669 0 0 1-3.141.581 4.385 4.385 0 0 1-4.644-4.758c0-2.846 1.675-5.089 4.431-5.089 3.082 0 3.9 2.71 3.9 4.446a5.828 5.828 0 0 1-.062.8zm5.03-1.231c.021-1.085-.443-2.789-2.379-2.789a2.844 2.844 0 0 0-2.633 2.789z" class="cls-6" data-name="Trazado 78" transform="translate(-144.395 -359.179)"/>
            <path id="Trazado_79" d="M206.778 366.145c0-.978-.019-1.773-.08-2.554h1.526l.1 1.562h.036a3.48 3.48 0 0 1 3.123-1.777c1.309 0 3.335.78 3.335 4.016v5.641H213.1v-5.441c0-1.526-.562-2.786-2.186-2.786a2.434 2.434 0 0 0-2.3 1.745 2.682 2.682 0 0 0-.117.8v5.681h-1.716z" class="cls-6" data-name="Trazado 79" transform="translate(-158.694 -359.179)"/>
            <path id="Trazado_80" d="M232.528 357.44v2.711h2.459v1.3h-2.459v5.093c0 1.171.327 1.831 1.285 1.831a4.1 4.1 0 0 0 1-.113l.081 1.29a4.276 4.276 0 0 1-1.528.227 2.384 2.384 0 0 1-1.849-.72 3.463 3.463 0 0 1-.662-2.456v-5.152h-1.466v-1.3h1.466v-2.265z" class="cls-6" data-name="Trazado 80" transform="translate(-171.842 -355.739)"/>
            <path id="Trazado_81" d="M249.239 356.09a1.063 1.063 0 0 1-2.125 0 1.046 1.046 0 0 1 1.067-1.072 1.024 1.024 0 0 1 1.058 1.072zm-1.911 12.1v-9.442h1.715v9.442z" class="cls-6" data-name="Trazado 81" transform="translate(-182.116 -354.335)"/>
            <path id="Trazado_82" d="M264.265 372.7a6.18 6.18 0 0 1-2.71.549 4.485 4.485 0 0 1-4.705-4.814 4.8 4.8 0 0 1 5.071-5.012 5.8 5.8 0 0 1 2.378.486l-.386 1.331a3.871 3.871 0 0 0-1.992-.453 3.269 3.269 0 0 0-3.335 3.569 3.233 3.233 0 0 0 3.279 3.529 4.721 4.721 0 0 0 2.1-.468z" class="cls-6" data-name="Trazado 82" transform="translate(-187.758 -359.208)"/>
            <path id="Trazado_83" d="M281.242 356.09a1.064 1.064 0 0 1-2.129 0 1.05 1.05 0 0 1 1.075-1.072 1.021 1.021 0 0 1 1.054 1.072zm-1.911 12.1v-9.442h1.715v9.442z" class="cls-6" data-name="Trazado 83" transform="translate(-200.66 -354.335)"/>
            <path id="Trazado_84" d="M294.367 373.033l-.135-1.19h-.058a3.517 3.517 0 0 1-2.89 1.4 2.687 2.687 0 0 1-2.884-2.712c0-2.28 2.027-3.533 5.676-3.51v-.2a1.946 1.946 0 0 0-2.15-2.186 4.653 4.653 0 0 0-2.456.705l-.383-1.132a5.844 5.844 0 0 1 3.1-.839c2.881 0 3.588 1.971 3.588 3.865v3.532a13.683 13.683 0 0 0 .156 2.26zm-.252-4.824c-1.877-.034-4 .293-4 2.131a1.521 1.521 0 0 0 1.615 1.641 2.362 2.362 0 0 0 2.287-1.578 1.842 1.842 0 0 0 .1-.552z" class="cls-6" data-name="Trazado 84" transform="translate(-206.042 -359.179)"/>
        </g>
        <g id="Grupo_76" data-name="Grupo 76" transform="translate(71.32 243.005)">
            <path id="Trazado_85" d="M106.179 299.212a14.348 14.348 0 0 1-4.791.863 7.331 7.331 0 0 1-8.014-7.873c.027-4.655 3.224-8.049 8.452-8.049a9.6 9.6 0 0 1 3.89.712l-.484 1.642a8.141 8.141 0 0 0-3.448-.665c-3.8 0-6.277 2.359-6.277 6.272 0 3.956 2.387 6.29 6.021 6.29a6.515 6.515 0 0 0 2.685-.412v-4.655h-3.175v-1.619h5.142z" class="cls-2" data-name="Trazado 85" transform="translate(-93.374 -284.153)"/>
            <path id="Trazado_86" d="M131.169 284.519h2.013v13.921h6.665v1.682h-8.679z" class="cls-2" data-name="Trazado 86" transform="translate(-115.277 -284.365)"/>
            <path id="Trazado_87" d="M165.249 292.808h-6.067v5.632h6.763v1.682h-8.778v-15.6h8.433v1.7h-6.414v4.925h6.067z" class="cls-2" data-name="Trazado 87" transform="translate(-130.344 -284.365)"/>
            <path id="Trazado_88" d="M181.738 298.942l8.66-12.66v-.067h-7.916v-1.7h10.533v1.229l-8.615 12.622v.075h8.732v1.682h-11.394z" class="cls-2" data-name="Trazado 88" transform="translate(-144.583 -284.365)"/>
            <path id="Trazado_89" d="M216.453 295.222l-1.623 4.9h-2.082l5.305-15.6h2.426l5.326 15.6h-2.149l-1.674-4.9zm5.118-1.581l-1.521-4.491c-.349-1.017-.586-1.944-.818-2.844h-.045a56.788 56.788 0 0 1-.787 2.822l-1.528 4.514z" class="cls-2" data-name="Trazado 89" transform="translate(-162.555 -284.365)"/>
            <path id="Trazado_90" d="M249.282 300.123v-15.6h2.2l5 7.9a43.487 43.487 0 0 1 2.8 5.072l.051-.027c-.189-2.084-.231-3.979-.231-6.409v-6.531h1.893v15.6h-2.037L254 292.206a49.766 49.766 0 0 1-2.915-5.206l-.069.024c.116 1.973.165 3.842.165 6.439v6.663z" class="cls-2" data-name="Trazado 90" transform="translate(-183.727 -284.365)"/>
            <path id="Trazado_91" d="M285.54 284.569a29.871 29.871 0 0 1 4.274-.322c2.9 0 4.96.673 6.323 1.945a7.19 7.19 0 0 1 2.2 5.6 8.255 8.255 0 0 1-2.246 6.063c-1.456 1.46-3.867 2.248-6.9 2.248a32.2 32.2 0 0 1-3.651-.189zm2.008 13.8a12.925 12.925 0 0 0 2.034.118c4.31 0 6.651-2.409 6.651-6.619.027-3.688-2.059-6.019-6.322-6.019a10.8 10.8 0 0 0-2.363.211z" class="cls-2" data-name="Trazado 91" transform="translate(-204.74 -284.207)"/>
        </g>
        <g id="Grupo_77" data-name="Grupo 77" transform="translate(81.563 213.151)">
            <path id="Trazado_92" d="M119.429 214.834v13.144h-1.695v-13.144z" class="cls-6" data-name="Trazado 92" transform="translate(-117.734 -214.126)"/>
            <path id="Trazado_93" d="M128.572 225.9c0-.976-.015-1.777-.076-2.564h1.522l.1 1.571h.04a3.473 3.473 0 0 1 3.121-1.778c1.3 0 3.333.78 3.333 4.018v5.637h-1.716v-5.439c0-1.526-.563-2.793-2.18-2.793a2.449 2.449 0 0 0-2.309 1.755 2.572 2.572 0 0 0-.113.8v5.676h-1.718z" class="cls-6" data-name="Trazado 93" transform="translate(-123.971 -218.936)"/>
            <path id="Trazado_94" d="M161.636 213.151v11.417c0 .835.018 1.79.079 2.435h-1.541l-.08-1.639h-.038a3.488 3.488 0 0 1-3.218 1.852c-2.281 0-4.041-1.93-4.041-4.8-.018-3.135 1.935-5.067 4.237-5.067a3.163 3.163 0 0 1 2.849 1.441h.037v-5.638zm-1.716 8.249a2.98 2.98 0 0 0-.076-.719 2.53 2.53 0 0 0-2.485-1.991c-1.767 0-2.825 1.557-2.825 3.648 0 1.911.94 3.492 2.793 3.492a2.584 2.584 0 0 0 2.517-2.047 2.937 2.937 0 0 0 .076-.737z" class="cls-6" data-name="Trazado 94" transform="translate(-138.054 -213.151)"/>
            <path id="Trazado_95" d="M188.409 230.5c0 .974.019 1.837.076 2.573h-1.52l-.1-1.534h-.037a3.562 3.562 0 0 1-3.124 1.747c-1.48 0-3.257-.816-3.257-4.132v-5.528h1.718v5.237c0 1.792.548 3 2.1 3a2.493 2.493 0 0 0 2.265-1.558 2.619 2.619 0 0 0 .153-.879v-5.8h1.721z" class="cls-6" data-name="Trazado 95" transform="translate(-154.079 -219.222)"/>
            <path id="Trazado_96" d="M205.006 231.032a4.492 4.492 0 0 0 2.261.685c1.251 0 1.837-.631 1.837-1.409 0-.819-.489-1.267-1.755-1.731-1.7-.608-2.5-1.544-2.5-2.672 0-1.523 1.228-2.772 3.254-2.772a4.739 4.739 0 0 1 2.32.582L210 224.97a3.679 3.679 0 0 0-1.935-.547c-1.016 0-1.586.58-1.586 1.288 0 .781.569 1.131 1.8 1.592 1.639.629 2.478 1.45 2.478 2.848 0 1.661-1.29 2.835-3.528 2.835a5.394 5.394 0 0 1-2.652-.644z" class="cls-6" data-name="Trazado 96" transform="translate(-168.064 -218.936)"/>
            <path id="Trazado_97" d="M224.421 217.2v2.7h2.456v1.316h-2.456v5.084c0 1.171.323 1.837 1.282 1.837a3.823 3.823 0 0 0 1-.118l.076 1.285a4.117 4.117 0 0 1-1.522.239 2.368 2.368 0 0 1-1.85-.729 3.478 3.478 0 0 1-.661-2.453v-5.147h-1.462V219.9h1.462v-2.257z" class="cls-6" data-name="Trazado 97" transform="translate(-177.742 -215.496)"/>
            <path id="Trazado_98" d="M239.071 226.294c0-1.11-.016-2.067-.072-2.953h1.5l.057 1.859h.081a2.821 2.821 0 0 1 2.615-2.067 1.77 1.77 0 0 1 .48.056v1.623a2.493 2.493 0 0 0-.583-.061 2.412 2.412 0 0 0-2.3 2.2 5 5 0 0 0-.079.8v5.034h-1.7z" class="cls-6" data-name="Trazado 98" transform="translate(-188.01 -218.936)"/>
            <path id="Trazado_99" d="M255.225 215.857a1.064 1.064 0 0 1-2.128 0 1.05 1.05 0 0 1 1.077-1.079 1.019 1.019 0 0 1 1.051 1.079zm-1.91 12.088V218.5h1.714v9.447z" class="cls-6" data-name="Trazado 99" transform="translate(-196.181 -214.094)"/>
            <path id="Trazado_100" d="M268.355 232.787l-.137-1.187h-.062a3.506 3.506 0 0 1-2.885 1.4 2.68 2.68 0 0 1-2.882-2.707c0-2.284 2.023-3.534 5.667-3.51v-.2a1.937 1.937 0 0 0-2.14-2.176 4.64 4.64 0 0 0-2.457.7l-.391-1.134a5.848 5.848 0 0 1 3.1-.841c2.889 0 3.585 1.975 3.585 3.859v3.537a13.375 13.375 0 0 0 .16 2.258zm-.26-4.819c-1.866-.037-3.994.287-3.994 2.131a1.512 1.512 0 0 0 1.618 1.63A2.331 2.331 0 0 0 268 230.15a1.713 1.713 0 0 0 .1-.541z" class="cls-6" data-name="Trazado 100" transform="translate(-201.566 -218.936)"/>
        </g>
    </g>
</svg>
